<?xml version="1.0" encoding="utf-8"?>

<!DOCTYPE svg PUBLIC "-//W3C//DTD SVG 1.1//EN" "http://www.w3.org/Graphics/SVG/1.1/DTD/svg11.dtd">
<!-- Uploaded to: SVG Repo, www.svgrepo.com, Generator: SVG Repo Mixer Tools -->
<svg fill="#000000" version="1.1" id="Layer_1" xmlns="http://www.w3.org/2000/svg" xmlns:xlink="http://www.w3.org/1999/xlink" 
	 viewBox="0 0 72 72" enable-background="new 0 0 72 72" xml:space="preserve">
<g>
	<path d="M36,3.518C18.089,3.518,3.518,18.089,3.518,36c0,17.91,14.571,32.482,32.482,32.482c17.91,0,32.482-14.572,32.482-32.482
		C68.482,18.089,53.91,3.518,36,3.518z M36,64.482C20.295,64.482,7.518,51.705,7.518,36S20.295,7.518,36,7.518
		S64.482,20.295,64.482,36S51.705,64.482,36,64.482z"/>
	<path d="M42.646,11.739c-0.527-0.14-1.082,0.168-1.229,0.701c-0.145,0.534,0.17,1.083,0.701,1.229
		C52.146,16.41,59.148,25.593,59.148,36c0,0.553,0.447,1,1,1s1-0.447,1-1C61.148,24.694,53.541,14.718,42.646,11.739z"/>
	<path d="M36.001,12.851c0.433,0,0.864,0.012,1.292,0.035c0.02,0.002,0.037,0.002,0.057,0.002c0.527,0,0.969-0.413,0.998-0.945
		c0.03-0.552-0.392-1.024-0.945-1.053c-0.465-0.025-0.931-0.039-1.401-0.039c-0.552,0-1,0.447-1,1
		C35.001,12.404,35.449,12.851,36.001,12.851z"/>
	<path d="M53.172,33.835l-10.447-6.518c-0.5-0.289-0.893-0.442-1.459-0.442c-1.559,0-2.391,1.128-2.391,2.623v5.646
		c-0.22-0.512-0.609-0.972-1.189-1.307l-10.29-6.521c-0.501-0.289-0.87-0.442-1.392-0.442c-1.435,0-2.129,1.102-2.129,2.623v13.004
		c0,1.521,0.684,2.625,2.104,2.625c0.518,0,0.894-0.154,1.424-0.462l10.248-6.483c0.586-0.338,0.996-0.795,1.225-1.303v5.623
		c0,1.496,0.807,2.625,2.332,2.625c0.557,0,0.953-0.154,1.475-0.453l10.545-6.492c0.871-0.502,1.391-1.265,1.393-2.096
		C54.619,35.203,54.109,34.377,53.172,33.835z M36.689,36.466l-10.324,6.485c-0.251,0.145-0.27,0.176-0.386,0.176
		c-0.112,0-0.104,0-0.104-0.625V29.498c0-0.414-0.186-0.623,0.129-0.623c0.172,0,0.205,0.06,0.371,0.155l10.213,6.521
		c0.348,0.2,0.494,0.4,0.494,0.486C37.082,36.109,37.018,36.276,36.689,36.466z M52.273,36.459l-10.621,6.492
		c-0.197,0.115-0.238,0.176-0.445,0.176c-0.203,0-0.332-0.063-0.332-0.625V29.498c0-0.578,0.219-0.623,0.391-0.623
		c0.215,0,0.271,0.06,0.443,0.158l10.371,6.518c0.377,0.217,0.539,0.442,0.539,0.533C52.619,36.145,52.564,36.292,52.273,36.459z"/>
</g>
</svg>