
<svg fill="#000000" version="1.1" id="Layer_1" xmlns="http://www.w3.org/2000/svg" xmlnsXlink="http://www.w3.org/1999/xlink" 
	viewBox="0 0 72 72" enable-background="new 0 0 72 72" xmlSpace="preserve">
<g>
	<path d="M35.12,37.725c0.098-0.543-0.262-1.063-0.806-1.162c-3.486-0.632-5.784-2.267-7.025-4.996
		c-0.228-0.503-0.822-0.727-1.324-0.496c-0.503,0.228-0.725,0.821-0.496,1.324c1.51,3.324,4.367,5.388,8.489,6.136
		c0.061,0.011,0.12,0.016,0.18,0.016C34.611,38.547,35.033,38.208,35.12,37.725z"/>
	<path d="M57,24.922V5.293C57,4.188,56.225,3.5,55.119,3.5h-38C16.015,3.5,15,4.188,15,5.293v19.629c0,10.448,8.19,19.886,18,21.369
		V64.5H21.119c-1.104,0-2,0.896-2,2s0.896,2,2,2h29c1.105,0,2-0.896,2-2s-0.896-2-2-2H37V46.488C47.76,46.249,57,36.171,57,24.922z
		 M53,7.5v13.2c-0.003,0.003-0.006,0.006-0.009,0.009c-2.123,2.297-5.675,6.147-15.386,0.732c-4.063-2.267-7.997-2.861-11.693-1.765
		c-3,0.888-5.302,2.731-6.912,4.443V7.5H53z M19.16,27.042c1.342-1.778,3.825-4.417,7.335-5.452
		c3.159-0.927,6.569-0.392,10.137,1.598c9.063,5.055,13.76,2.681,16.368,0.35v1.384C53,34.014,45.25,42.5,36.609,42.5h-0.74
		c-0.264-0.129-0.557-0.207-0.87-0.207c-0.238,0-0.464,0.049-0.676,0.125C26.869,41.666,20.213,34.822,19.16,27.042z"/>
</g>
</svg>