<?xml version="1.0" encoding="utf-8"?>

<!DOCTYPE svg PUBLIC "-//W3C//DTD SVG 1.1//EN" "http://www.w3.org/Graphics/SVG/1.1/DTD/svg11.dtd">
<!-- Uploaded to: SVG Repo, www.svgrepo.com, Generator: SVG Repo Mixer Tools -->
<svg fill="#000000" version="1.1" id="Layer_1" xmlns="http://www.w3.org/2000/svg" xmlns:xlink="http://www.w3.org/1999/xlink" 
	viewBox="0 0 72 72" enable-background="new 0 0 72 72" xml:space="preserve">
<g>
	<path d="M23.748,2.747c2.271,0,4.405,0.884,6.011,2.489l24.506,24.506c1.646,1.645,2.546,3.921,2.479,6.255
		c0.068,2.337-0.833,4.614-2.479,6.261L29.758,66.764c-1.605,1.605-3.739,2.489-6.01,2.489c-2.271,0-4.405-0.884-6.01-2.489
		c-3.314-3.314-3.314-8.707,0-12.021L36.481,36L17.738,17.258c-3.314-3.314-3.314-8.707,0-12.021
		C19.344,3.631,21.478,2.747,23.748,2.747z M23.748,65.253c1.202,0,2.332-0.468,3.182-1.317L50.963,39.43
		c0.891-0.893,0.833-2.084,0.833-3.355c0-0.051,0-0.101,0-0.151c0-1.271,0.058-2.461-0.833-3.353L26.693,8.064
		c-0.85-0.85-1.862-1.317-3.063-1.317c-1.203,0-2.273,0.468-3.123,1.317c-1.755,1.755-1.725,4.61,0.03,6.365l20.172,20.156
		c0.781,0.781,0.788,2.047,0.007,2.828L20.563,57.57c-1.754,1.755-1.753,4.61,0.001,6.365
		C21.413,64.785,22.546,65.253,23.748,65.253z"/>
</g>
</svg>