<?xml version="1.0" encoding="utf-8"?>

<!DOCTYPE svg PUBLIC "-//W3C//DTD SVG 1.1//EN" "http://www.w3.org/Graphics/SVG/1.1/DTD/svg11.dtd">
<!-- Uploaded to: SVG Repo, www.svgrepo.com, Generator: SVG Repo Mixer Tools -->
<svg fill="#000000" version="1.1" id="Layer_1" xmlns="http://www.w3.org/2000/svg" xmlns:xlink="http://www.w3.org/1999/xlink" 
	viewBox="0 0 72 72" enable-background="new 0 0 72 72" xml:space="preserve">
<g>
	<path d="M53.262,3.5H18.738C10.599,3.5,4,10.099,4,18.24v0.521C4,26.901,10.599,33.5,18.738,33.5h34.524
		C61.4,33.5,68,26.901,68,18.761v-0.522C68,10.099,61.4,3.5,53.262,3.5z M64,18.761c0,5.93-4.809,10.739-10.738,10.739H18.738
		C12.808,29.5,8,24.691,8,18.76v-0.521C8,12.309,12.808,7.5,18.738,7.5h34.524C59.191,7.5,64,12.309,64,18.239V18.761z"/>
	<path d="M50.891,10.5H46.63c-0.553,0-1,0.447-1,1s0.447,1,1,1h4.261c4.412,0,8.109,3.215,8.109,7.48v0.52c0,0.553,0.447,1,1,1
		s1-0.447,1-1v-0.52C61,14.664,56.352,10.5,50.891,10.5z"/>
	<path d="M42.63,10.5h-2c-0.553,0-1,0.447-1,1s0.447,1,1,1h2c0.554,0,1-0.447,1-1S43.184,10.5,42.63,10.5z"/>
	<path d="M19.656,9.464c-4.796,0-8.697,3.901-8.697,8.697c0,4.796,3.901,8.697,8.697,8.697c4.796,0,8.697-3.901,8.697-8.697
		C28.353,13.365,24.452,9.464,19.656,9.464z M19.656,22.858c-2.59,0-4.697-2.107-4.697-4.697c0-2.59,2.107-4.697,4.697-4.697
		c2.59,0,4.697,2.107,4.697,4.697C24.353,20.751,22.246,22.858,19.656,22.858z"/>
	<path d="M53.262,38.5H18.738C10.599,38.5,4,45.098,4,53.238v0.521C4,61.9,10.599,68.5,18.738,68.5h34.524
		C61.4,68.5,68,61.9,68,53.76v-0.521C68,45.098,61.4,38.5,53.262,38.5z M64,53.76c0,5.932-4.809,10.74-10.738,10.74H18.738
		C12.808,64.5,8,59.691,8,53.76v-0.521c0-5.93,4.808-10.738,10.738-10.737h34.524c5.93,0,10.738,4.808,10.738,10.737V53.76z"/>
	<path d="M11.937,53.033c-0.56-0.063-0.967,0.338-1.026,0.889C10.874,54.27,11,54.624,11,54.98v0.181c0,0.553,0.447,1,1,1
		s1-0.448,1-1V54.98c0-0.287-0.094-0.569-0.065-0.848C12.994,53.582,12.486,53.09,11.937,53.033z"/>
	<path d="M20.528,45.161c-3.499,0-6.761,1.887-8.511,4.92c-0.277,0.478-0.112,1.092,0.366,1.366
		c0.158,0.091,0.329,0.134,0.499,0.134c0.346,0,0.681-0.181,0.868-0.5c1.394-2.418,3.991-3.92,6.778-3.92c0.553,0,1-0.447,1-1
		C21.528,45.607,21.081,45.161,20.528,45.161z"/>
	<path d="M51.762,44.464c-4.796,0-8.697,3.902-8.697,8.697c0,4.797,3.901,8.696,8.697,8.696c4.797,0,8.697-3.899,8.697-8.696
		C60.459,48.366,56.559,44.464,51.762,44.464z M51.762,57.857c-2.59,0-4.697-2.107-4.697-4.697s2.107-4.697,4.697-4.697
		s4.697,2.107,4.697,4.697S54.352,57.857,51.762,57.857z"/>
</g>
</svg>