<?xml version="1.0" encoding="utf-8"?>
<svg fill="#000000" version="1.1" id="Layer_1" xmlns="http://www.w3.org/2000/svg" xmlnsXlink="http://www.w3.org/1999/xlink" 
 viewBox="0 0 72 72" enable-background="new 0 0 72 72" xmlSpace="preserve">
<g>
	<g>
		<path d="M68.94,34.504c0,3.828-3.104,6.932-6.932,6.932h-9.137c-3.828,0-6.932-3.104-6.932-6.932V12.367
			c0-3.828,3.104-6.932,6.932-6.932h9.137c3.828,0,6.932,3.104,6.932,6.932V34.504z M64.94,12.367c0-1.619-1.313-2.932-2.932-2.932
			h-9.137c-1.619,0-2.932,1.313-2.932,2.932v22.137c0,1.619,1.313,2.932,2.932,2.932h9.137c1.619,0,2.932-1.313,2.932-2.932V12.367z
			"/>
	</g>
	<path d="M59.94,14.686c0,0.967-0.783,1.75-1.75,1.75h-0.5c-0.967,0-1.75-0.783-1.75-1.75v-0.5c0-0.967,0.783-1.75,1.75-1.75h0.5
		c0.967,0,1.75,0.783,1.75,1.75V14.686z"/>
	<g>
		<path d="M28.634,66.564c-1.252,0-2.407-0.347-3.434-1.029c-2.781-1.85-5.896-4.739-5.283-10.716
			c0.191-1.885,0.98-3.653,1.742-5.363c0.502-1.124,0.975-2.187,1.24-3.19c0.054-0.204,0.06-0.758,0.063-1.222
			c-2.181-0.188-4.376-0.354-6.351-0.354c-1.245,0-2.258,0.01-3.076,0.019c-1.058,0.011-1.794,0.018-2.31-0.002
			c-0.397-0.002-0.728-0.021-1.057-0.063c-2.168-0.289-4.095-1.406-5.424-3.144c-1.329-1.738-1.901-3.89-1.612-6.059
			c0.28-2.11,1.379-4.027,3.041-5.341c-0.732-1.347-1.023-2.897-0.819-4.426c0.239-1.778,1.094-3.36,2.429-4.52
			c-0.001-0.026-0.002-0.051-0.004-0.073c-0.454-1.056-0.613-2.21-0.462-3.351c0.222-1.664,1.062-3.13,2.349-4.147
			c-0.367-0.867-0.499-1.824-0.373-2.763c0.268-2,1.641-3.674,3.526-4.322c1.171-0.595,2.618-0.719,4.537-0.719
			c0.646,0,1.366,0.014,2.173,0.029c0.994,0.019,2.123,0.04,3.403,0.04c1.594,0,3.079-0.049,4.517-0.097
			c1.272-0.041,2.466-0.08,3.579-0.08c4.844,0,10.104,0.632,11.916,8.175c0.037,0.152-0.004,0.31-0.004,0.467v25.278
			c0,0.059,0.057,0.117,0.052,0.175l-0.058,1c-0.012,0.135-0.022,0.267-0.061,0.396c-0.548,1.84-2.565,5.132-4.708,8.616
			c-1.698,2.763-3.45,5.62-4.026,7.074c-0.976,2.468-0.977,5.793-0.896,6.865c0.058,0.754-0.314,1.476-0.962,1.865
			C32.115,65.685,30.597,66.564,28.634,66.564z M16.611,40.689c2.542,0,5.313,0.246,7.994,0.483l0.608,0.054
			c0.536,0.047,1.03,0.309,1.372,0.725c0.341,0.417,0.499,0.953,0.439,1.488c-0.056,0.505-0.06,1.05-0.063,1.577
			c-0.006,0.808-0.011,1.569-0.196,2.271c-0.348,1.316-0.91,2.578-1.454,3.798c-0.663,1.487-1.289,2.894-1.417,4.142
			c-0.41,4.007,1.514,5.645,3.52,6.979c0.525,0.35,1.212,0.416,1.803,0.3c0.013-1.716,0.207-4.596,1.207-7.123
			c0.704-1.78,2.471-4.654,4.342-7.697c1.664-2.707,3.66-6.051,4.173-7.494l0.001-0.687V14.558c-1-4.2-3.218-4.886-7.972-4.886
			c-1.072,0-2.192,0.038-3.419,0.078c-1.469,0.049-2.972,0.099-4.632,0.099c-1.31,0-2.456-0.021-3.473-0.041
			c-0.778-0.015-1.47-0.028-2.093-0.028c-0.61,0-2.229,0-2.755,0.302c-0.135,0.077-0.277,0.139-0.426,0.183
			c-0.494,0.146-0.844,0.563-0.914,1.087c-0.05,0.374,0.068,0.664,0.178,0.842c0.433,0.704,0.552,1.662,0.319,2.56
			c-0.203,0.778-0.656,1.399-1.279,1.749c-0.659,0.37-1.094,1.011-1.193,1.758c-0.058,0.437,0.007,0.88,0.188,1.279
			c0.456,1.002,0.573,3.421-0.836,4.455c-0.729,0.533-1.194,1.317-1.314,2.211c-0.104,0.772,0.077,1.562,0.509,2.219
			c0.878,1.345,0.396,3.729-0.938,4.642c-0.984,0.671-1.637,1.729-1.793,2.904c-0.148,1.11,0.145,2.211,0.825,3.101
			c0.68,0.889,1.666,1.324,2.776,1.473c0.18,0.024,0.357-0.106,0.533-0.106c0.024,0,0.117,0,0.142,0
			c0.468,0,1.162,0.146,2.121,0.137C14.323,40.564,15.35,40.689,16.611,40.689z"/>
	</g>
	<g>
		<path d="M22.919,14.342c-0.326,0-1.317,0-1.337-0.982c-0.003-0.142,0.029-0.277,0.09-0.4c0.146-0.384,0.529-0.616,0.953-0.645
			c0.114,0.002,0.217,0.012,0.311,0.027c0.545,0.009,0.983,0.453,0.983,1C23.919,13.895,23.472,14.342,22.919,14.342z"/>
	</g>
	<g>
		<path d="M35.599,16.378c-0.279,0-0.558-0.116-0.755-0.345c-1.975-2.273-3.978-2.134-7.613-1.879
			c-0.461,0.032-0.94,0.065-1.442,0.095c-0.54,0.038-1.024-0.389-1.057-0.939c-0.033-0.551,0.388-1.024,0.939-1.057
			c0.493-0.029,0.966-0.063,1.42-0.094c3.708-0.26,6.634-0.465,9.263,2.563c0.362,0.417,0.317,1.048-0.1,1.41
			C36.065,16.298,35.831,16.378,35.599,16.378z"/>
	</g>
</g>
</svg>