<?xml version="1.0" encoding="utf-8"?>

<!DOCTYPE svg PUBLIC "-//W3C//DTD SVG 1.1//EN" "http://www.w3.org/Graphics/SVG/1.1/DTD/svg11.dtd">
<!-- Uploaded to: SVG Repo, www.svgrepo.com, Generator: SVG Repo Mixer Tools -->
<svg fill="#000000" version="1.1" id="Layer_1" xmlns="http://www.w3.org/2000/svg" xmlns:xlink="http://www.w3.org/1999/xlink" 
	 width="800px" height="800px" viewBox="0 0 72 72" enable-background="new 0 0 72 72" xml:space="preserve">
<g>
	<path d="M37.008,3.5h-1.796C21.561,3.5,10.5,14.228,10.5,27.512v33.716c0,3.696,3.273,7.271,6.785,7.271h0.333
		c3.79,0,5.882-3.785,5.882-7.271v-2.996c0-1.235,1.84-1.731,3.114-1.731h0.333c0.754,0,2.553,0.097,2.553,1.731v2.996
		c0,3.401,2.619,7.271,6.443,7.271h0.333c3.697,0,6.224-3.798,6.224-7.271v-2.996c0-1.433,1.797-1.731,2.771-1.731h0.334
		c1.399,0,1.895,0.36,1.895,1.731v2.996c0,3.629,3.495,7.271,7.102,7.271h0.334c3.73,0,6.564-3.877,6.564-7.271V27.512
		C61.5,14.228,50.486,3.5,37.008,3.5z M57.5,61.229c0,1.549-1.34,3.271-2.564,3.271h-0.334c-1.384,0-3.102-1.87-3.102-3.271V58.23
		c0-3.584-2.288-5.73-5.895-5.73h-0.334c-3.951,0-6.771,2.363-6.771,5.732v2.996c0,1.476-0.997,3.271-2.224,3.271h-0.333
		c-1.21,0-2.443-1.721-2.443-3.271v-2.996c0-3.422-2.722-5.731-6.553-5.731h-0.333c-3.471,0-7.114,1.957-7.114,5.731v2.996
		c0,1.338-0.685,3.271-1.882,3.271h-0.333c-1.297,0-2.785-1.809-2.785-3.271V27.512C14.5,16.433,23.766,7.5,35.212,7.5h1.796
		C48.473,7.5,57.5,16.245,57.5,27.512V61.229z"/>
	<path d="M35.777,11.454c0.215,0,0.429,0.046,0.642,0.046c0.012,0,0.023,0,0.035,0c0.536,0,0.979-0.457,0.999-0.997
		c0.018-0.552-0.413-1.048-0.965-1.067c-0.235-0.009-0.473-0.008-0.711-0.008c-0.553,0-1,0.456-1,1.009
		C34.777,10.99,35.224,11.454,35.777,11.454z"/>
	<path d="M40.813,10.057c-0.537-0.138-1.096,0.182-1.236,0.716c-0.139,0.534,0.193,1.08,0.729,1.22
		C47.585,13.889,52.5,20.061,52.5,27.35v12.07c0,0.553,0.447,1,1,1c0.552,0,1-0.447,1-1V27.35
		C54.5,19.136,48.988,12.187,40.813,10.057z"/>
	<path d="M23.794,23.574c-3.221,0-5.84,2.62-5.84,5.84s2.619,5.84,5.84,5.84c3.22,0,5.84-2.62,5.84-5.84
		S27.014,23.574,23.794,23.574z M23.794,33.254c-2.117,0-3.84-1.723-3.84-3.84c0-2.117,1.723-3.84,3.84-3.84s3.84,1.723,3.84,3.84
		C27.634,31.531,25.911,33.254,23.794,33.254z"/>
	<path d="M38.529,23.574c-3.221,0-5.84,2.62-5.84,5.84s2.619,5.84,5.84,5.84c3.22,0,5.84-2.62,5.84-5.84
		S41.749,23.574,38.529,23.574z M38.529,33.254c-2.117,0-3.84-1.723-3.84-3.84c0-2.117,1.723-3.84,3.84-3.84s3.84,1.723,3.84,3.84
		C42.369,31.531,40.646,33.254,38.529,33.254z"/>
</g>
</svg>