
<svg fill="#000000" version="1.1" id="Layer_1" xmlns="http://www.w3.org/2000/svg" xmlnsXlink="http://www.w3.org/1999/xlink" 
	  viewBox="0 0 72 72" enableBackground="new 0 0 72 72" xmlSpace="preserve">
<g>
	<path d="M61.568,11.5H10.432c-3.828,0-6.932,3.104-6.932,6.932v35.136c0,3.828,3.104,6.933,6.932,6.933h51.136
		c3.828,0,6.932-3.104,6.932-6.933h0.001V18.432C68.501,14.604,65.396,11.5,61.568,11.5z M54.5,56.501h-37V56.5v-2.6
		c0-2.303,1.828-4.4,3.886-4.4h29.135c2.059,0,3.979,2.098,3.979,4.4V56.501L54.5,56.501z M64.501,53.568
		c0,1.619-1.313,2.933-2.933,2.933h-5.067V56.5v-2.6c0-3.41-2.819-6.4-5.978-6.4H21.386c-3.16,0-5.886,2.99-5.886,6.4v2.6v0.001
		h-5.068c-1.619,0-2.932-1.313-2.932-2.933V18.432c0-1.619,1.313-2.932,2.932-2.932h51.136c1.619,0,2.932,1.313,2.932,2.932h0.001
		V53.568z"/>
	<path d="M47.891,21.5H24.016c-2.058,0-4.229,0.775-6.279,2.241c-0.449,0.322-0.552,0.947-0.231,1.396
		c0.321,0.447,0.946,0.551,1.396,0.231c1.19-0.852,3.045-1.868,5.115-1.868h23.875c4.561,0,8.607,4.027,8.607,8.618v0.826
		c0,4.308-3.727,7.556-8.607,7.556H24.017c-4.802,0-8.563-3.475-8.563-7.908c0-0.553-0.448-1-1-1c-0.553,0-1,0.447-1,1
		c0,5.463,4.739,9.908,10.563,9.908h23.875c6.021,0,10.607-4.109,10.606-9.556v-0.826C58.499,26.462,53.518,21.5,47.891,21.5z"/>
	<path d="M14.602,30.234c0.108,0.037,0.219,0.055,0.327,0.055c0.414,0,0.801-0.26,0.946-0.673c0.119-0.345,0.263-0.684,0.428-1.008
		c0.251-0.492,0.054-1.095-0.437-1.345c-0.494-0.251-1.095-0.055-1.346,0.437c-0.206,0.407-0.387,0.831-0.536,1.262
		C13.803,29.484,14.081,30.053,14.602,30.234z"/>
	<path d="M31.58,32.717c0-3.343-2.72-6.063-6.063-6.063c-3.343,0-6.063,2.72-6.063,6.063c0,3.343,2.72,6.063,6.063,6.063
		C28.859,38.779,31.58,36.06,31.58,32.717z M21.454,32.717c0-2.241,1.823-4.063,4.063-4.063c2.24,0,4.063,1.823,4.063,4.063
		c0,2.24-1.822,4.063-4.063,4.063C23.276,36.779,21.454,34.958,21.454,32.717z"/>
	<path d="M53.58,32.717c0-3.343-2.721-6.063-6.063-6.063c-3.344,0-6.063,2.72-6.063,6.063c0,3.343,2.72,6.063,6.063,6.063
		C50.859,38.779,53.58,36.06,53.58,32.717z M43.454,32.717c0-2.241,1.823-4.063,4.063-4.063c2.239,0,4.063,1.823,4.063,4.063
		c0,2.24-1.822,4.063-4.063,4.063C45.275,36.779,43.454,34.958,43.454,32.717z"/>
</g>
</svg>