<?xml version="1.0" encoding="utf-8"?>

<!DOCTYPE svg PUBLIC "-//W3C//DTD SVG 1.1//EN" "http://www.w3.org/Graphics/SVG/1.1/DTD/svg11.dtd">
<!-- Uploaded to: SVG Repo, www.svgrepo.com, Generator: SVG Repo Mixer Tools -->
<svg fill="#000000" version="1.1" id="Layer_1" xmlns="http://www.w3.org/2000/svg" xmlns:xlink="http://www.w3.org/1999/xlink" 
	 width="800px" height="800px" viewBox="0 0 72 72" enable-background="new 0 0 72 72" xml:space="preserve">
<g>
	<path d="M48.055,14.837c0.322,0,0.637-0.155,0.832-0.443c0.852-1.27,2.273-2.029,3.801-2.029c0.551,0,1-0.447,1-1
		c0-0.553-0.449-1-1-1c-2.195,0-4.237,1.09-5.463,2.914c-0.308,0.459-0.185,1.08,0.273,1.388
		C47.669,14.782,47.863,14.837,48.055,14.837z"/>
	<path d="M12.548,32.147c-0.544-0.102-1.066,0.252-1.17,0.794c-0.071,0.369-0.07,0.53-0.062,0.76l0.005,0.237c0,0.553,0.447,1,1,1
		c0.552,0,1-0.447,1.001-1c0-0.132-0.003-0.227-0.006-0.305c-0.005-0.14-0.005-0.148,0.026-0.315
		C13.446,32.775,13.091,32.251,12.548,32.147z"/>
	<path d="M18.686,26.571c-2.46,0-4.748,1.222-6.12,3.268c-0.308,0.458-0.185,1.08,0.273,1.388c0.172,0.114,0.366,0.169,0.557,0.169
		c0.323,0,0.639-0.155,0.831-0.444c1-1.49,2.667-2.381,4.459-2.381c0.552,0,1-0.447,1-1C19.686,27.018,19.238,26.571,18.686,26.571z
		"/>
	<path d="M51.688,36.271c-5.841,0-10.935,3.217-13.629,7.967l-7.105-3.484c1.127-2.021,1.776-4.343,1.776-6.816
		c0-1.568-0.27-3.072-0.746-4.481l10.917-4.696c2.3,2.872,5.829,4.718,9.786,4.718c6.916,0,12.541-5.625,12.543-12.541
		c0-6.916-5.627-12.542-12.543-12.542s-12.541,5.626-12.541,12.542c0,1.519,0.285,2.97,0.782,4.318l-10.757,4.626
		c-2.543-3.614-6.739-5.987-11.485-5.987c-7.742,0-14.041,6.299-14.041,14.042c0,7.742,6.299,14.041,14.041,14.041
		c3.802,0,7.251-1.524,9.782-3.987l8.084,3.964c-0.336,1.274-0.533,2.604-0.533,3.982c0,8.64,7.027,15.666,15.667,15.666
		c8.638,0,15.668-7.026,15.668-15.666C67.355,43.299,60.326,36.271,51.688,36.271z M52.688,8.396c4.709,0,8.543,3.832,8.543,8.542
		s-3.834,8.541-8.543,8.541c-4.711,0-8.541-3.831-8.541-8.541S47.977,8.396,52.688,8.396z M18.687,43.979
		c-5.537,0-10.041-4.504-10.041-10.041c0-5.537,4.504-10.042,10.041-10.042s10.042,4.505,10.043,10.042
		C28.73,39.475,24.224,43.979,18.687,43.979z M51.688,63.604c-6.434,0-11.666-5.231-11.666-11.666
		c0-6.434,5.232-11.666,11.666-11.666c6.433,0,11.668,5.232,11.668,11.666C63.355,58.372,58.121,63.604,51.688,63.604z"/>
	<path d="M50.688,42.713c-2.75,0-5.304,1.365-6.834,3.648c-0.308,0.459-0.185,1.08,0.274,1.389c0.171,0.113,0.365,0.168,0.556,0.168
		c0.322,0,0.639-0.154,0.832-0.443c1.157-1.729,3.092-2.762,5.172-2.762c0.551,0,1-0.447,1-1S51.238,42.713,50.688,42.713z"/>
</g>
</svg>